<?xml version="1.0"?>
<svg xmlns="http://www.w3.org/2000/svg" xmlns:xlink="http://www.w3.org/1999/xlink" xmlns:svgjs="http://svgjs.com/svgjs" version="1.1" width="512" height="512" x="0" y="0" viewBox="0 0 512 512" style="enable-background:new 0 0 512 512" xml:space="preserve" class=""><g>
<circle xmlns="http://www.w3.org/2000/svg" style="" cx="256" cy="256" r="256" fill="#9c9c9c" data-original="#00f8fe" class=""/>
<path xmlns="http://www.w3.org/2000/svg" style="" d="M512,256c0-36.84-7.797-71.855-21.806-103.506L458,120.3H54v271.4l98.494,98.494  C184.145,504.203,219.16,512,256,512C397.385,512,512,397.385,512,256z" fill="#a6a6a6" data-original="#00b7be" class=""/>
<rect xmlns="http://www.w3.org/2000/svg" x="54" y="120.3" style="" width="404" height="271.4" fill="#444444" data-original="#ff633e" class=""/>
<rect xmlns="http://www.w3.org/2000/svg" x="256" y="120.3" style="" width="202" height="271.4" fill="#444444" data-original="#ff3200" class=""/>
<path xmlns="http://www.w3.org/2000/svg" style="" d="M72.75,137.512v68.523v99.93v68.523h366.5v-68.523v-99.93v-68.523H72.75z M251,293.828  c-18.689-2.458-33.166-18.479-33.166-37.828s14.477-35.37,33.166-37.828V293.828z M261,218.172  c18.689,2.458,33.166,18.479,33.166,37.828S279.689,291.37,261,293.828V218.172z M82.75,170.947  c15.393,2.993,58.435,13.444,83.153,40.155c-5.196-2.545-10.892-4.217-16.902-4.817v-0.251H82.75V170.947z M149.001,295.641v-79.282  c19.684,2.469,34.965,19.298,34.965,39.641S168.685,293.172,149.001,295.641z M104.037,256c0-20.343,15.281-37.171,34.964-39.641  v79.282C119.318,293.171,104.037,276.343,104.037,256z M114.049,295.965H82.75v-79.93h31.299  c-12.142,9.124-20.011,23.642-20.011,39.965S101.906,286.841,114.049,295.965z M149.001,305.965v-0.251  c6.176-0.616,12.019-2.371,17.33-5.036c-8.558,9.362-20.203,17.597-34.925,24.648c-19.499,9.34-39.244,13.918-48.656,15.734v-35.095  H149.001z M82.75,351.248c9.026-1.621,30.756-6.296,52.762-16.799c38.241-18.252,58.454-45.379,58.454-78.448  s-20.213-60.196-58.454-78.448c-22.005-10.503-43.736-15.178-52.762-16.799v-13.241H251v60.582  c-24.218,2.509-43.166,23.036-43.166,47.906s18.948,45.397,43.166,47.906v60.582H82.75V351.248z M261,364.488v-60.582  c24.218-2.509,43.166-23.036,43.166-47.906S285.218,210.603,261,208.094v-60.582h168.25v13.241  c-9.026,1.621-30.756,6.296-52.762,16.799c-38.241,18.252-58.454,45.379-58.454,78.448s20.213,60.196,58.454,78.448  c22.005,10.503,43.735,15.178,52.762,16.799v13.241H261z M362.999,216.359v79.282c-19.684-2.469-34.965-19.298-34.965-39.641  S343.315,218.828,362.999,216.359z M407.963,256c0,20.343-15.281,37.171-34.964,39.641v-79.282  C392.682,218.829,407.963,235.657,407.963,256z M397.951,216.035h31.299v79.93h-31.299c12.142-9.124,20.012-23.642,20.012-39.965  S410.094,225.159,397.951,216.035z M429.25,341.053c-15.393-2.993-58.435-13.444-83.153-40.155  c5.196,2.545,10.892,4.217,16.902,4.817v0.251h66.251V341.053z M362.999,206.035v0.251c-6.176,0.616-12.019,2.371-17.33,5.036  c8.558-9.362,20.203-17.597,34.925-24.648c19.5-9.341,39.245-13.918,48.656-15.734v35.095L362.999,206.035L362.999,206.035z" fill="#ffffff" data-original="#fff8fe" class=""/>
<path xmlns="http://www.w3.org/2000/svg" style="" d="M256,137.51v236.98h183.25V137.51H256z M261,218.17c18.69,2.46,33.17,18.48,33.17,37.83  s-14.48,35.37-33.17,37.83V218.17z M429.25,341.05c-15.39-2.99-58.43-13.44-83.15-40.15c5.19,2.54,10.89,4.21,16.9,4.81v0.25h66.25  V341.05z M328.03,256c0-20.34,15.28-37.17,34.97-39.64v79.28C343.31,293.17,328.03,276.34,328.03,256z M373,295.64v-79.28  c19.68,2.47,34.96,19.3,34.96,39.64S392.68,293.17,373,295.64z M429.25,295.96h-31.3c12.14-9.12,20.01-23.64,20.01-39.96  s-7.87-30.84-20.01-39.96h31.3V295.96z M429.25,206.04H363v0.25c-6.18,0.61-12.02,2.37-17.33,5.03c8.56-9.36,20.2-17.59,34.92-24.65  c19.5-9.34,39.25-13.91,48.66-15.73L429.25,206.04L429.25,206.04z M429.25,160.75c-9.03,1.62-30.76,6.3-52.76,16.8  c-38.24,18.25-58.46,45.38-58.46,78.45s20.22,60.2,58.46,78.45c22,10.5,43.73,15.18,52.76,16.8v13.24H261v-60.58  c24.22-2.51,43.17-23.04,43.17-47.91s-18.95-45.4-43.17-47.91v-60.58h168.25V160.75z" fill="#ffffff" data-original="#ffe670" class=""/>
<g xmlns="http://www.w3.org/2000/svg">
</g>
<g xmlns="http://www.w3.org/2000/svg">
</g>
<g xmlns="http://www.w3.org/2000/svg">
</g>
<g xmlns="http://www.w3.org/2000/svg">
</g>
<g xmlns="http://www.w3.org/2000/svg">
</g>
<g xmlns="http://www.w3.org/2000/svg">
</g>
<g xmlns="http://www.w3.org/2000/svg">
</g>
<g xmlns="http://www.w3.org/2000/svg">
</g>
<g xmlns="http://www.w3.org/2000/svg">
</g>
<g xmlns="http://www.w3.org/2000/svg">
</g>
<g xmlns="http://www.w3.org/2000/svg">
</g>
<g xmlns="http://www.w3.org/2000/svg">
</g>
<g xmlns="http://www.w3.org/2000/svg">
</g>
<g xmlns="http://www.w3.org/2000/svg">
</g>
<g xmlns="http://www.w3.org/2000/svg">
</g>
</g></svg>
