<svg id="Layer_1" data-name="Layer 1" xmlns="http://www.w3.org/2000/svg" viewBox="0 0 597.32 597.32"><defs><style>.cls-1{fill:#d6c1a3;}.cls-2{fill:#29262a;}.cls-3{fill:#f6b487;}.cls-4{fill:#25252b;}.cls-5{fill:#e85a51;}.cls-6{fill:#e97e74;}.cls-7{fill:#ce6f6a;}.cls-8{fill:#eddfca;}.cls-9{fill:#8e8d8a;}.cls-10{fill:#194899;}.cls-11{fill:#2d2f30;}.cls-12{fill:#d2a46f;}.cls-13{fill:#b79061;}.cls-14{fill:#c39967;}.cls-15{fill:#7f644f;}.cls-16{fill:#dfa47b;}</style></defs><circle class="cls-1" cx="298.66" cy="298.66" r="298.66"/><path class="cls-2" d="M10.56,615.38" transform="translate(-7.34 -79.36)"/><path class="cls-3" d="M259,314.91l-23,95.84L344.53,407l-2.16-92s7.67-15.88,9.2-22.56c0,0,2.71,3.34,8.85,0,0,0,6.58-5.05,14.07-27.79,0,0,3.79-15.62-5.95-13.54l-8.12,13.18s-2.71-65.79.72-68.41c5-25.34-93-43.1-99.27-12.09,0,0,1.8,23-1.81,23.46l-4.87,13s-6.68,15-4.33,24.54l-10.11-5s-6,.36-4.51,8.48c0,0,5,36.64,14.44,35.38A87.68,87.68,0,0,0,259,314.91Z" transform="translate(-7.34 -79.36)"/><path class="cls-4" d="M256.61,312.68,253,315.93l-5.23.9s-13.63,4.24-12.27,6.68c0,0-11.28-4.52-13.54,2.7,0,0-9.93,1.45-14.62,4.34,0,0-15.34,2.65-18.23,6.24,0,0-13.45,5.13-22.92,23.36,0,0-14.35,16.69-13.54,22.2,0,0-5.59,1.35-7.94,8.3,0,0-6.23,3.25-6.32,7.4,0,0-5.5,2.07-7.58,9.38l-25.27,26.35-2.52,3.8s-12.64,7.49-11.92,13.53c0,0-5.23,3.16-4.87,5.06,0,0-14.44,8.12-13,15.34l-3.56,5.41a65.37,65.37,0,0,0,0,56.13h3.38l8.84,12.64s8,10.65,19.49,5.77L116,548.58l18.59,10.28,4-3.43s40.25,15.71,39.89,20c0,0,9.48-1.17,12.09-6.5,0,0-4.24-6.5-15-11.55,0,0,13.63-51.8,35.56-44,0,0,5.5-1.71-21.93-7.76,0,0-5.41-.54-4.42-2.89,0,0-2.57-8.12-21.64-10.83,0,0-2.46-2.8,7.56-5.95,0,0,20.76-31.32,20.94-33.94,0,0,3.43,1.72,15.16,29.6l17.33,31.77,16.6,3.07,162.8-3.79-13-10.65s1.26-16.24-.91-23.28l13.9-34.66s5.06-5.95,6.14,0c0,0,10.29,13.54,15.7,11.37,0,0,16.52,32.4,31.77,30.69,0,0-10.11,13.53-16.25,15.7l-14.62,6.86s24.82-17.06,41,50.9c0,0,25-19.14,33.39-18.23,0,0,14.53-4.25,19.14-9.39l22.91-9.2a62.71,62.71,0,0,0,5.86-30.2,62.06,62.06,0,0,0-5.86-22.87A49,49,0,0,0,539.49,459c-2.4-5.82-6.41-12.59-12.86-16.38a35.93,35.93,0,0,0-15.71-7.22s-1-8-10.29-11c0,0-22.92-30-36.82-33.21,0,0-9.92-12.27-13.35-12.45,0,0-13.27-30.15-23.83-34.12,0,0-27.52-17.5-34.47-15.88,0,0-6.14-7.58-19.67-7.4,0,0-4.7-7.13-16.79-7.58a37.64,37.64,0,0,1-10.65-3.61,25.33,25.33,0,0,1-3.79,7.22c3.85,35.44-19.8,61.85-39.62,62.57-20.49.75-47-25.57-43.58-62.75Z" transform="translate(-7.34 -79.36)"/><path class="cls-5" d="M333.26,452.9v46.92h28.88s20.22-12.63,19.5-27.43L391.74,435l-7.94,1.16s-2.89,13.85-26.71,15.29l-23.83-8.65Z" transform="translate(-7.34 -79.36)"/><path class="cls-6" d="M270.81,467.42l13.8,134.65s37.55,27.25,65.76-5.06l7.72-131.39S316.07,485.11,270.81,467.42Z" transform="translate(-7.34 -79.36)"/><path class="cls-7" d="M268.37,463.84s5,14.28,43.51,13.49c0,0,37.79,1.39,48.6-15.87L359,451.54s0,13.57-33.74,19c0,0-17.05,5-43.21-4.37,0,0-14.4-5.36-13.64-12.3Z" transform="translate(-7.34 -79.36)"/><path class="cls-8" d="M310.91,439.27s-55.88,5.23-39.56,23.1c0,0,16.32,13.36,50.13,9,0,0,48-4.15,35.36-20.21C356.84,451.18,347.36,437.82,310.91,439.27Z" transform="translate(-7.34 -79.36)"/><path class="cls-9" d="M320.4,455.71H308.49v-50a7.45,7.45,0,0,1,6.05-3.32,7.37,7.37,0,0,1,5.86,3.32Z" transform="translate(-7.34 -79.36)"/><path class="cls-10" d="M339.09,399.86" transform="translate(-7.34 -79.36)"/><path class="cls-3" d="M260.17,597.67l-13.24-1.62s-29.72-8.54-35.86-12.75l-17.81-14.68a54.51,54.51,0,0,1-5.77-6l-11.92-6s13.9-42.31,24.73-43.18c0,0,28.46-4.11,53.61,6.84,0,0,20.93,9.26,22.86,8.42l1.2,7.22s23.59,15.4,22.86,21.18c0,0,3,10.59-7.46,11.31l-23.82-14.92s-5.9-1.08-15.64-8.9l-10.59-4,36.82,26.18,24.3,17.8s5.78,16-8.42,14.2l-32.25-19.49a70.55,70.55,0,0,1-15.88-10.59l-14.44-9.14,65,41.15-1,3.86a14.29,14.29,0,0,1-22.14,0l-15.15-6.82-13.24-5.95-3.85-3.85-15.65-11.55-6-1.68" transform="translate(-7.34 -79.36)"/><path class="cls-3" d="M431.2,506.34s-36.22,13.71-39,12c0,0-19.37-7.58-28.64-3.85l-17.81.24-6.73.48s-11.68,4.81-14.2,4.57c0,0-8.79,2.53-14,5.54,0,0-14.44,10.71,1,16.84,0,0,6.26.48,24.79-5.77l14-1.69,6.74,3.85s-4.7,6-10.11,8.91c0,0-7.1,5-12.27,5.53l-15.41,6.74-14.8,5.54s-11.31,11.55,2.53,17.32L320,580.46s14-4.21,16.36-5.3-2.41,1.09-2.41,1.09,14.32-4.82,17.33-8.79l12.27-5.05-12.75,10.83s-14,5-18.29,7.94l-24.26,5.53s-11.48,15.17,6,15.17c0,0,13.24-.37,16.85-2.41,0,0,24.66-5.06,30.8-12.52l8.66-5.53s-21.42,20.11-28.88,18.77c-1.05,5.3.3,7.35,1.14,8.19,3.71,3.69,14.35.53,26.78-8.19,4.51-2.9,9.18-6.29,14.08-10,7.64-5.77,16.48-13.11,21.3-19.37,0,0,6.61-2.41,9.62-4.81,0,0,13.72-2.29,18.29-7.94l33-8.91S458.26,496.85,431.2,506.34Z" transform="translate(-7.34 -79.36)"/><path class="cls-11" d="M407.86,515s3.13-4.45,17.09-5.43c0,0,3.73-1.74,14.68,4.34,0,0,4.45,4.78,6.74,5,0,0,4.45.87,4.33,4.56l5.53,21.07s1.45,3.36-4.09,5.21l-3.37,6.51-15.64,2s2.17-1.08,2.65-4.77c0,0-3.13,0-2.65-4.78l-5.29-20.84s-.84-5.32,1.44-5.21C429.28,522.61,427,511.53,407.86,515Z" transform="translate(-7.34 -79.36)"/><path class="cls-12" d="M264,194.77s2.11,12-3.33,27.91c0,0-5.55,13.12-4,14.2l-3.11,25.75s-5.33-25.39-3.78-43.8c0,0,8.56-41.52,25.78-60.64A56.65,56.65,0,0,1,302.44,144c3.19-.58,24.29-4,42.51,10.59C360.42,167,363.39,184.05,364,188l-1.12,6.26L367.09,207s7.44,9.39,1.77,24.79c0,0-3,13.23-5.33,17.81l.89,9.86-8,14.44.22-26.47s-3.11-5.66.67-12.75l-.44-28.4s-3.78-25.87-45.32-26.95l-5.78-.25s-6.44,15.41-22.22,7.95C283.55,187.07,272,188,264,194.77Z" transform="translate(-7.34 -79.36)"/><path class="cls-2" d="M534.83,568.26" transform="translate(-7.34 -79.36)"/><path class="cls-13" d="M342.36,186.22s11.95,8.17,14.06,14.13c.05.16.23.62.59.71,1.76.43,5.91-8.73,7-13,3.52-14.34-13.66-30.15-17.36-33.45C347.81,157,350,162.28,342.36,186.22Z" transform="translate(-7.34 -79.36)"/><path class="cls-14" d="M342.36,186.22l-14.06-4.74s19.63-5.55,5-33.91l13.36,7S356.36,183.21,342.36,186.22Z" transform="translate(-7.34 -79.36)"/><path class="cls-15" d="M427.26,182.74" transform="translate(-7.34 -79.36)"/><path class="cls-16" d="M259,314.91s32.81,56.08,82.28,2.46C341.26,317.37,294.54,389,259,314.91Z" transform="translate(-7.34 -79.36)"/></svg>